# xmcd
#
# Track frame offsets: 
#        150
#        15023
#        42126
#        66608
#        92125
#        128870
#        154848
#        181354
#
# Disc length: 2624 seconds
#
# Revision: 1
# Processed by: cddbd v1.5.2PL0 Copyright (c) Steve Scherf et al.
# Submitted via: ExactAudioCopyFreeDBPlugin 1.0
#
DISCID=610a3e08
DTITLE=Ronald Shannon Jackson and The Decoding Society - Talkeye
DYEAR=1987
DGENRE=Jazz
TTITLE0=Charming the Beast
TTITLE1=Starhawk
TTITLE2=Holyman
TTITLE3=Talkeye
TTITLE4=Gandhi
TTITLE5=Jax's Dance
TTITLE6=Psychic Greeting
TTITLE7=Sheep in Wolf's Clothing
EXTD=YEAR: 1987
EXTT0=
EXTT1=
EXTT2=
EXTT3=
EXTT4=
EXTT5=
EXTT6=
EXTT7=
PLAYORDER=
